<svg style="display:none;" xmlns="http://www.w3.org/2000/svg">
  <symbol id="icon" viewBox="0 0 48 48">
    <path d="M7.68 20.16C7.68 12.0703 7.68 8.02545 9.62147 5.11983C10.462 3.86196 11.542 2.78195 12.7998 1.94147C15.7054 0 19.7503 0 27.84 0C35.9297 0 39.9746 0 42.8802 1.94147C44.138 2.78195 45.218 3.86196 46.0585 5.11983C48 8.02545 48 12.0703 48 20.16C48 28.2497 48 32.2946 46.0585 35.2002C45.218 36.458 44.138 37.538 42.8802 38.3785C39.9746 40.32 35.9297 40.32 27.84 40.32C19.7503 40.32 15.7054 40.32 12.7998 38.3785C11.542 37.538 10.462 36.458 9.62147 35.2002C7.68 32.2946 7.68 28.2497 7.68 20.16Z" fill="#553B33"/>
    <path d="M0 23.04C0 15.7992 0 12.1788 2.24942 9.92942C4.49884 7.68 8.11923 7.68 15.36 7.68H24.96C32.2008 7.68 35.8212 7.68 38.0706 9.92942C40.32 12.1788 40.32 15.7992 40.32 23.04V32.64C40.32 39.8808 40.32 43.5012 38.0706 45.7506C35.8212 48 32.2008 48 24.96 48H15.36C8.11923 48 4.49884 48 2.24942 45.7506C0 43.5012 0 39.8808 0 32.64V23.04Z" fill="#2F241F"/>
  </symbol>

  <symbol id="basket" viewBox="0 0 48 48">
    <rect width="96" height="96" rx="8" fill="#553B33"/>
    <path d="M30 18H28C28 15.79 26.21 14 24 14C21.79 14 20 15.79 20 18H18C16.9 18 16 18.9 16 20V32C16 33.1 16.9 34 18 34H30C31.1 34 32 33.1 32 32V20C32 18.9 31.1 18 30 18ZM24 16C25.1 16 26 16.9 26 18H22C22 16.9 22.9 16 24 16ZM30 32H18V20H20V22C20 22.55 20.45 23 21 23C21.55 23 22 22.55 22 22V20H26V22C26 22.55 26.45 23 27 23C27.55 23 28 22.55 28 22V20H30V32Z" fill="#E5F1B5"/>
  </symbol>
</svg>
