<svg style="display:none;" xmlns="http://www.w3.org/2000/svg">
  <symbol id="icon" viewBox="0 0 48 48">
    <path d="M7.68 20.16C7.68 12.0703 7.68 8.02545 9.62147 5.11983C10.462 3.86196 11.542 2.78195 12.7998 1.94147C15.7054 0 19.7503 0 27.84 0C35.9297 0 39.9746 0 42.8802 1.94147C44.138 2.78195 45.218 3.86196 46.0585 5.11983C48 8.02545 48 12.0703 48 20.16C48 28.2497 48 32.2946 46.0585 35.2002C45.218 36.458 44.138 37.538 42.8802 38.3785C39.9746 40.32 35.9297 40.32 27.84 40.32C19.7503 40.32 15.7054 40.32 12.7998 38.3785C11.542 37.538 10.462 36.458 9.62147 35.2002C7.68 32.2946 7.68 28.2497 7.68 20.16Z" fill="#553B33"/>
    <path d="M0 23.04C0 15.7992 0 12.1788 2.24942 9.92942C4.49884 7.68 8.11923 7.68 15.36 7.68H24.96C32.2008 7.68 35.8212 7.68 38.0706 9.92942C40.32 12.1788 40.32 15.7992 40.32 23.04V32.64C40.32 39.8808 40.32 43.5012 38.0706 45.7506C35.8212 48 32.2008 48 24.96 48H15.36C8.11923 48 4.49884 48 2.24942 45.7506C0 43.5012 0 39.8808 0 32.64V23.04Z" fill="#2F241F"/>
  </symbol>

<symbol id="basket" viewBox="0 0 24 24" xmlns="http://www.w3.org/2000/svg">
  <g transform="scale(0.7) translate(5, 5)">
    <path d="M18 6H16C16 3.79 14.21 2 12 2C9.79 2 8 3.79 8 6H6C4.9 6 4 6.9 4 8V20C4 21.1 4.9 22 6 22H18C19.1 22 20 21.1 20 20V8C20 6.9 19.1 6 18 6ZM12 4C13.1 4 14 4.9 14 6H10C10 4.9 10.9 4 12 4ZM18 20H6V8H8V10C8 10.55 8.45 11 9 11C9.55 11 10 10.55 10 10V8H14V10C14 10.55 14.45 11 15 11C15.55 11 16 10.55 16 10V8H18V20Z"
      fill="#E5F1B5" />
  </g>
</symbol>





<svg xmlns="http://www.w3.org/2000/svg" style="display: none">
  <symbol id="search" viewBox="0 0 18 18">
    <path d="M12.5 11H11.71L11.43 10.73C12.63 9.33002 13.25 7.42002 12.91 5.39002C12.44 2.61002 10.12 0.390015 7.32 0.0500152C3.09 -0.469985 -0.47 3.09001 0.05 7.32001C0.39 10.12 2.61 12.44 5.39 12.91C7.42 13.25 9.33 12.63 10.73 11.43L11 11.71V12.5L15.25 16.75C15.66 17.16 16.33 17.16 16.74 16.75C17.15 16.34 17.15 15.67 16.74 15.26L12.5 11ZM6.5 11C4.01 11 2 8.99002 2 6.50002C2 4.01002 4.01 2.00002 6.5 2.00002C8.99 2.00002 11 4.01002 11 6.50002C11 8.99002 8.99 11 6.5 11Z" fill="#553B33"/>
  </symbol>

  <symbol id="watch" viewBox="0 0 16 20">
    <path d="M8.8 13.9L13.47 10.4C13.74 10.2 13.74 9.8 13.47 9.6L8.8 6.1C8.47 5.85 8 6.09 8 6.5V13.5C8 13.91 8.47 14.15 8.8 13.9ZM10 0C4.48 0 0 4.48 0 10C0 15.52 4.48 20 10 20C15.52 20 20 15.52 20 10C20 4.48 15.52 0 10 0ZM10 18C5.59 18 2 14.41 2 10C2 5.59 5.59 2 10 2C14.41 2 18 5.59 18 10C18 14.41 14.41 18 10 18Z" fill="#553B33"/>
  </symbol>
</svg>

<symbol id="chevron-right" viewBox="0 0 8 12" xmlns="http://www.w3.org/2000/svg">
  <path d="M2.00003 0L0.590027 1.41L5.17003 6L0.590027 10.59L2.00003 12L8.00003 6L2.00003 0Z" fill="white"/>
</symbol>



</svg>
